<svg preserveAspectRatio="none" width="100%" height="100%" overflow="visible" style="display: block;" viewBox="0 0 10.8642 15.9998" fill="none" xmlns="http://www.w3.org/2000/svg">
<g id="Group">
<path id="Vector" d="M2.6497 15.954C2.53277 15.9047 2.4356 15.8178 2.37352 15.7071C2.31144 15.5964 2.28798 15.4682 2.30686 15.3426L3.34682 8.57145H0.58692C0.499423 8.5738 0.412554 8.55602 0.333017 8.51948C0.25348 8.48294 0.183399 8.42862 0.128184 8.3607C0.072968 8.29279 0.0340925 8.2131 0.0145569 8.12778C-0.00497872 8.04246 -0.0046522 7.95379 0.0155111 7.86861L1.72974 0.440301C1.7599 0.31246 1.83319 0.198914 1.93726 0.118777C2.04134 0.0386407 2.16984 -0.00319361 2.30115 0.000316762H8.01523C8.1006 2.65022e-05 8.18494 0.0188668 8.26207 0.0554533C8.3392 0.0920398 8.40715 0.145443 8.46093 0.211738C8.51547 0.278782 8.55409 0.357325 8.57389 0.441454C8.59368 0.525583 8.59413 0.613106 8.57521 0.697435L7.58667 5.14299H10.3009C10.408 5.14278 10.513 5.17267 10.6039 5.22924C10.6948 5.28582 10.768 5.36681 10.8151 5.46298C10.8561 5.55529 10.8718 5.65679 10.8608 5.75717C10.8498 5.85754 10.8123 5.9532 10.7523 6.03439L3.32397 15.7483C3.27376 15.8228 3.20673 15.8843 3.1283 15.928C3.04987 15.9717 2.96226 15.9963 2.87255 15.9998C2.79609 15.9983 2.72055 15.9828 2.6497 15.954ZM6.15815 6.28581L7.30097 1.14313H2.75827L1.30689 7.42863H4.68392L3.77538 13.3027L9.15805 6.28581H6.15815Z" fill="var(--fill-0, #8AEA92)"/>
</g>
</svg>
