<svg preserveAspectRatio="none" width="100%" height="100%" overflow="visible" style="display: block;" viewBox="0 0 16 17" fill="none" xmlns="http://www.w3.org/2000/svg">
<g id="Frame">
<path id="Vector" d="M12.2 12.7499H12.1211L12.6992 11.8724C12.7649 11.7727 12.8 11.6555 12.8 11.5356V6.07154C12.8 0.0693367 8.04797 0 7.99997 0C7.84089 -2.01218e-08 7.68832 0.0639262 7.57581 0.177724C7.46329 0.291522 7.40005 0.445876 7.39997 0.60685L7.39967 1.82116H6.79996C6.67491 1.82105 6.55299 1.86066 6.45136 1.93439L2.25134 4.97016C2.14691 5.04562 2.06913 5.15297 2.02943 5.27646C1.98973 5.39994 1.99021 5.53305 2.03078 5.65624L2.63078 7.47771C2.67502 7.6127 2.76479 7.72764 2.88436 7.80238C3.00394 7.87712 3.14569 7.9069 3.28479 7.8865L6.2068 7.46404L3.89109 11.2138C3.82987 11.3129 3.79822 11.4278 3.79994 11.5446C3.80165 11.6615 3.83666 11.7754 3.90075 11.8726L4.47885 12.7499H4.39995C3.92272 12.7505 3.46518 12.9425 3.12773 13.284C2.79028 13.6255 2.60047 14.0885 2.59994 14.5714V17H14V14.5714C13.9995 14.0885 13.8097 13.6255 13.4722 13.284C13.1348 12.9425 12.6772 12.7505 12.2 12.7499ZM7.90883 7.00018C7.96947 6.90204 8.00112 6.78841 8.00006 6.67267C7.999 6.55694 7.96527 6.44392 7.90285 6.34694C7.84043 6.24995 7.75191 6.17304 7.64773 6.12527C7.54355 6.0775 7.42804 6.06086 7.31483 6.07731L3.61053 6.61275L3.30902 5.69729L6.99196 3.03577H7.99937C8.15845 3.03577 8.31102 2.97184 8.42353 2.85804C8.53604 2.74425 8.59929 2.58989 8.59937 2.42892L8.59997 1.29227C9.50076 1.49548 11.13 2.22795 11.516 4.85693H9.79998V6.07123H11.6V7.28554H9.79998V8.49985H11.6V9.71416H9.79998V10.9285H11.6V11.3518L10.6789 12.7499H5.92084L5.11395 11.5249L7.90883 7.00018ZM12.8 15.7857H3.79995V14.5714C3.80009 14.4104 3.86335 14.2561 3.97584 14.1422C4.08833 14.0284 4.24086 13.9644 4.39995 13.9642H12.2C12.3591 13.9643 12.5116 14.0283 12.6242 14.1422C12.7367 14.256 12.7999 14.4104 12.8 14.5714V15.7857Z" fill="var(--fill-0, #A99986)"/>
</g>
</svg>
