<svg preserveAspectRatio="none" width="100%" height="100%" overflow="visible" style="display: block;" viewBox="0 0 16 16" fill="none" xmlns="http://www.w3.org/2000/svg">
<g id="globe-icon" clip-path="url(#clip0_0_4)">
<path id="Vector" d="M8.0353 1.17104L8.37319 1.18178C10.0575 1.27391 11.653 1.98667 12.8468 3.18959C14.1204 4.47296 14.8329 6.20971 14.8283 8.01772C14.8235 9.82562 14.1024 11.5584 12.8224 12.8351C11.5424 14.1118 9.80801 14.8282 8.00014 14.8283C6.19229 14.8283 4.45794 14.1117 3.17787 12.8351C1.89785 11.5584 1.17575 9.82562 1.17104 8.01772C1.1664 6.20972 1.87897 4.47296 3.15248 3.18959C4.34644 1.98641 5.94253 1.27385 7.62709 1.18178L7.96498 1.17104H8.0353Z" stroke="var(--stroke-0, #A99986)" stroke-width="1.2"/>
<path id="Vector_2" d="M8 0.999651V14.9997M15.0001 8L1.00008 7.99965M2.24762 3.42857C3.92658 4.62637 5.93757 5.27018 8 5.27018C10.0624 5.27018 12.0734 4.62637 13.7524 3.42857M13.7524 12.5714C12.0734 11.3736 10.0624 10.7298 8 10.7298C5.93757 10.7298 3.92658 11.3736 2.24762 12.5714M7.50014 0.999651C6.44154 1.89366 5.51919 2.77015 4.93561 4.02686C4.35202 5.28358 4.04968 6.65249 4.04968 8.0381C4.04968 9.4237 4.35202 10.7926 4.93561 12.0493C5.51919 13.306 6.44148 14.1056 7.50008 14.9997M8.50008 14.9997C9.55869 14.1056 10.4808 13.306 11.0644 12.0493C11.648 10.7926 11.9503 9.4237 11.9503 8.0381C11.9503 6.65249 11.648 5.28358 11.0644 4.02686C10.4808 2.77015 9.55874 1.89366 8.50014 0.999651" stroke="var(--stroke-0, #A99986)"/>
</g>
<defs>
<clipPath id="clip0_0_4">
<rect width="16" height="16" fill="white"/>
</clipPath>
</defs>
</svg>
