<svg preserveAspectRatio="none" width="100%" height="100%" overflow="visible" style="display: block;" viewBox="0 0 16.0002 16.0003" fill="none" xmlns="http://www.w3.org/2000/svg">
<g id="Group">
<path id="Vector" d="M14.8574 0H1.14307C0.840057 0.000302558 0.000211596 0.000244141 0.000211596 0.000244141C0.000211596 0.000244141 0.000514155 0.839845 0.000211596 1.14286V14.8571C0.000559444 15.1601 0.000211596 16.0002 0.000211596 16.0002C0.000211596 16.0002 0.840071 15.9997 1.14307 16H14.8574C15.1603 15.9996 16.0002 16.0002 16.0002 16.0002C16.0002 16.0002 15.9998 15.1601 16.0002 14.8571V1.14286C15.9999 0.839859 16.0002 0 16.0002 0C16.0002 0 15.1604 0.000347848 14.8574 0ZM1.00021 15V6.5V1H15.0002V5.14286V15H1.00021Z" fill="var(--fill-0, #A99986)"/>
<path id="Vector_2" d="M9.26291 3.02209C8.9678 2.93598 8.66053 3.10997 8.57547 3.40873L6.35344 11.2821C6.26838 11.5808 6.44024 11.8919 6.73535 11.978C7.03047 12.0641 7.33773 11.8901 7.42279 11.5914L9.64482 3.71804C9.72988 3.41928 9.55802 3.10821 9.26291 3.02209ZM10.3843 5.41397C10.1673 5.63365 10.1673 5.99041 10.3843 6.21009L11.6585 7.50005L10.3843 8.79002C10.1673 9.0097 10.1673 9.36646 10.3843 9.58614C10.6013 9.80582 10.9537 9.80582 11.1707 9.58614L12.8373 7.89899C13.0542 7.67931 13.0542 7.32255 12.8373 7.10287L11.1707 5.41573C10.9537 5.19605 10.6013 5.19605 10.3843 5.41573V5.41397ZM5.61566 5.41397C5.39866 5.19429 5.04626 5.19429 4.82927 5.41397L3.16275 7.10111C2.94575 7.32079 2.94575 7.67756 3.16275 7.89724L4.82927 9.58438C5.04626 9.80406 5.39866 9.80406 5.61566 9.58438C5.83265 9.3647 5.83265 9.00794 5.61566 8.78826L4.34146 7.50005L5.61392 6.21009C5.83092 5.99041 5.83092 5.63365 5.61392 5.41397H5.61566Z" fill="var(--fill-0, #A99986)"/>
</g>
</svg>
