<svg preserveAspectRatio="none" width="100%" height="100%" overflow="visible" style="display: block;" viewBox="0 0 16 16" fill="none" xmlns="http://www.w3.org/2000/svg">
<g id="Group">
<path id="Vector" d="M12 11H13.1429V14H12V11Z" fill="var(--fill-0, white)"/>
<path id="Vector_2" d="M10 8H11.1429V14H10V8Z" fill="var(--fill-0, white)"/>
<path id="Vector_3" d="M5 14C4.20464 13.9991 3.44212 13.6827 2.87971 13.1203C2.31731 12.5579 2.00094 11.7954 2 11H3.2C3.2 11.356 3.30557 11.704 3.50335 12C3.70114 12.296 3.98226 12.5267 4.31117 12.663C4.64008 12.7992 5.002 12.8349 5.35116 12.7654C5.70033 12.696 6.02106 12.5245 6.27279 12.2728C6.52453 12.0211 6.69596 11.7003 6.76541 11.3512C6.83487 11.002 6.79922 10.6401 6.66298 10.3112C6.52675 9.98226 6.29604 9.70114 6.00003 9.50335C5.70402 9.30557 5.35601 9.2 5 9.2V8C5.79565 8 6.55871 8.31607 7.12132 8.87868C7.68393 9.44129 8 10.2044 8 11C8 11.7956 7.68393 12.5587 7.12132 13.1213C6.55871 13.6839 5.79565 14 5 14Z" fill="var(--fill-0, white)"/>
<path id="Vector_4" d="M14.8571 0H1.14286C0.839845 0.000302558 0 0 0 0C0 0 0.000302558 0.839845 0 1.14286V14.8571C0.000347848 15.1601 0 16 0 16C0 16 0.839859 15.9997 1.14286 16H14.8571C15.1601 15.9996 16 16 16 16C16 16 15.9996 15.1601 16 14.8571V1.14286C15.9997 0.839859 16 0 16 0C16 0 15.1601 0.000347848 14.8571 0ZM15 5H7V1H15V5ZM6 1V5H1V1H6ZM1 15V6H15V15H1Z" fill="var(--fill-0, white)"/>
</g>
</svg>
