<svg preserveAspectRatio="none" width="100%" height="100%" overflow="visible" style="display: block;" viewBox="0 0 16 16" fill="none" xmlns="http://www.w3.org/2000/svg">
<g id="Group">
<path id="Vector" d="M13.7127 8.00019C13.7127 7.08078 13.4893 6.17513 13.0617 5.36121L12.2068 6.21613C12.447 6.78022 12.5705 7.38709 12.5698 8.00019H13.7127Z" fill="var(--fill-0, #A99986)"/>
<path id="Vector_2" d="M12.2358 4.57184L11.4278 3.76379L8.73367 6.4579C8.50486 6.3462 8.25383 6.28749 7.99921 6.28613C7.66016 6.28613 7.32872 6.38667 7.04681 6.57504C6.76489 6.76341 6.54517 7.03114 6.41542 7.34439C6.28567 7.65763 6.25172 8.00232 6.31787 8.33486C6.38401 8.6674 6.54728 8.97285 6.78703 9.2126C7.02678 9.45235 7.33223 9.61562 7.66477 9.68176C7.99731 9.74791 8.342 9.71396 8.65524 9.58421C8.96849 9.45446 9.23622 9.23474 9.42459 8.95282C9.61296 8.67091 9.7135 8.33947 9.7135 8.00042C9.71214 7.7458 9.65343 7.49477 9.54173 7.26596L12.2358 4.57184ZM7.99921 8.57185C7.8862 8.57185 7.77572 8.53833 7.68174 8.47554C7.58777 8.41275 7.51453 8.32351 7.47128 8.21909C7.42803 8.11468 7.41672 7.99978 7.43876 7.88894C7.46081 7.77809 7.51524 7.67627 7.59515 7.59636C7.67507 7.51644 7.77689 7.46202 7.88773 7.43997C7.99858 7.41792 8.11347 7.42924 8.21789 7.47249C8.3223 7.51574 8.41155 7.58898 8.47434 7.68295C8.53713 7.77692 8.57064 7.8874 8.57064 8.00042C8.57045 8.15191 8.51018 8.29714 8.40306 8.40426C8.29594 8.51138 8.15071 8.57165 7.99921 8.57185Z" fill="var(--fill-0, #A99986)"/>
<path id="Vector_3" d="M7.99922 3.42894C8.61234 3.42833 9.21925 3.55182 9.78339 3.79197L10.6383 2.93706C9.76798 2.48139 8.79475 2.25812 7.81284 2.28887C6.83092 2.31962 5.87357 2.60334 5.03346 3.11256C4.19335 3.62179 3.49892 4.33928 3.01741 5.19557C2.53589 6.05187 2.28359 7.01798 2.28493 8.00037H3.42779C3.42918 6.78838 3.91126 5.62643 4.76827 4.76942C5.62527 3.91241 6.78723 3.43033 7.99922 3.42894Z" fill="var(--fill-0, #A99986)"/>
<path id="Vector_4" d="M8.00001 16C6.41775 16 4.87104 15.5308 3.55544 14.6518C2.23985 13.7727 1.21447 12.5233 0.608967 11.0615C0.00346627 9.59966 -0.15496 7.99113 0.153721 6.43928C0.462403 4.88743 1.22433 3.46197 2.34315 2.34315C3.46197 1.22433 4.88743 0.462403 6.43928 0.153721C7.99113 -0.15496 9.59966 0.00346627 11.0615 0.608967C12.5233 1.21447 13.7727 2.23985 14.6518 3.55544C15.5308 4.87104 16 6.41775 16 8.00001C15.9976 10.121 15.154 12.1544 13.6542 13.6542C12.1544 15.154 10.121 15.9976 8.00001 16ZM8.00001 1.14286C6.64379 1.14286 5.31803 1.54503 4.19038 2.2985C3.06273 3.05197 2.18383 4.12291 1.66483 5.37589C1.14583 6.62887 1.01003 8.00761 1.27462 9.33777C1.5392 10.6679 2.19228 11.8897 3.15127 12.8487C4.11026 13.8077 5.33209 14.4608 6.66224 14.7254C7.9924 14.99 9.37114 14.8542 10.6241 14.3352C11.8771 13.8162 12.948 12.9373 13.7015 11.8096C14.455 10.682 14.8571 9.35622 14.8571 8.00001C14.8551 6.18201 14.132 4.43908 12.8464 3.15356C11.5609 1.86805 9.818 1.14493 8.00001 1.14286Z" fill="var(--fill-0, #A99986)"/>
</g>
</svg>
