<svg preserveAspectRatio="none" width="100%" height="100%" overflow="visible" style="display: block;" viewBox="0 0 16 16" fill="none" xmlns="http://www.w3.org/2000/svg">
<g id="Group">
<path id="Vector" d="M16 2.63674L15.2485 2.88617C14.1958 3.21597 13.1027 3.3985 12 3.42857C11.0089 3.42857 10.1014 2.91017 9.14063 2.36103C8.09263 1.76229 7.00891 1.14286 5.71429 1.14286C4.07029 1.14286 2.23691 2.40349 1.14286 3.29829V0H0V14.8571C0.000378027 15.1601 0 16 0 16C0 16 0.839869 15.9996 1.14286 16H16V2.63674ZM1.14286 10.4539C2.21371 8.78657 4.32 6.28571 5.71429 6.28571C6.65023 6.28571 7.40572 6.9152 8.20572 7.58206C9.08372 8.3136 10.0788 9.14286 11.4286 9.14286C12.7063 9.08163 13.921 8.56966 14.8571 7.69783V10.5296C13.8035 11.1015 12.6272 11.4099 11.4286 11.4286C10.5118 11.4042 9.60616 11.2207 8.75212 10.8865C7.78204 10.5114 6.75408 10.3082 5.71429 10.2857C4.04171 10.2857 2.24709 11.9766 1.14286 13.233V10.4539ZM5.71429 2.28571C6.70537 2.28571 7.61286 2.80411 8.57366 3.35326C9.62166 3.952 10.7054 4.57143 12 4.57143C12.9643 4.5552 13.9233 4.42512 14.8571 4.18389V6.08177C14.4667 6.54074 13.0946 8 11.4286 8C10.4926 8 9.73714 7.37051 8.93714 6.70366C8.05914 5.97211 7.06406 5.14286 5.71429 5.14286C4.03669 5.14286 2.2496 7.05109 1.14286 8.48269V4.8136C2.02634 3.98046 4.14789 2.28571 5.71429 2.28571ZM1.28514 14.8571C2.20703 13.6621 4.23429 11.4286 5.71429 11.4286C6.63109 11.453 7.5367 11.6364 8.39074 11.9707C9.36082 12.3457 10.3888 12.549 11.4286 12.5714C12.6126 12.5601 13.7808 12.2992 14.8571 11.8057V14.8571H1.28514Z" fill="var(--fill-0, #A99986)"/>
</g>
</svg>
