<svg preserveAspectRatio="none" width="100%" height="100%" overflow="visible" style="display: block;" viewBox="0 0 230 190" fill="none" xmlns="http://www.w3.org/2000/svg">
<g id="metadao-logo-blank 1" clip-path="url(#clip0_0_56)">
<path id="Vector" d="M204.02 28.8626C300.779 28.8626 379.218 107.388 379.218 204.255C379.218 301.121 300.779 379.647 204.02 379.647C107.26 379.647 28.8217 301.121 28.8217 204.255C28.8217 159.355 45.6898 118.383 73.4088 87.3583L163.886 177.935C167.527 181.68 174.198 181.807 177.878 178.082C179.723 176.215 180.624 173.572 180.599 170.961C180.576 168.432 179.684 165.898 177.898 164.094L177.722 163.922L87.4 73.4996C118.381 45.7925 159.209 28.8626 204.02 28.8626ZM0.35345 9.50841C0.333197 4.77761 3.91958 0.812204 8.62267 0.362817C8.90615 0.349673 9.19005 0.350193 9.47353 0.363506H75.9198C79.2152 0.316919 82.2793 2.0503 83.9408 4.8994C85.6016 7.74854 85.6016 11.2724 83.9408 14.1216C82.3315 16.8815 79.405 18.5941 76.2281 18.6561L75.9198 18.6568H31.6203L32.2225 19.2596L86.3742 73.4714C81.8363 77.5589 77.4768 81.7918 73.3813 86.332L19.2289 32.1189L18.6268 31.5161V76.0134C18.6732 79.3119 16.9419 82.3802 14.096 84.0429C11.25 85.7062 7.73019 85.7062 4.88422 84.0429C2.03827 82.3802 0.306913 79.3119 0.35345 76.0134V9.50841Z" stroke="var(--stroke-0, #312D2A)" stroke-width="1.5"/>
</g>
<defs>
<clipPath id="clip0_0_56">
<rect width="230" height="190" fill="white"/>
</clipPath>
</defs>
</svg>
