<svg width="326" height="269" viewBox="0 0 326 269" fill="none" xmlns="http://www.w3.org/2000/svg">
  <path d="M289.176 40.8633C426.321 40.8634 537.5 152.039 537.5 289.182C537.5 426.324 426.321 537.5 289.176 537.5C152.03 537.5 40.8516 426.324 40.8516 289.182C40.8516 225.613 64.7604 167.606 104.049 123.681L232.29 251.918C237.451 257.22 246.907 257.4 252.123 252.127C254.738 249.483 256.015 245.742 255.98 242.045C255.947 238.464 254.683 234.876 252.151 232.322L251.902 232.079L123.88 104.06C167.792 64.8326 225.662 40.8633 289.176 40.8633ZM0.500977 13.4619C0.472271 6.76409 5.55558 1.14991 12.2217 0.513672C12.6235 0.495064 13.0259 0.4958 13.4277 0.514648H107.608C112.279 0.448691 116.622 2.9028 118.977 6.93652C121.331 10.9703 121.331 15.9594 118.977 19.9932C116.696 23.9006 112.548 26.3254 108.045 26.4131L107.608 26.4141H44.8184L45.6719 27.2676L122.426 104.02C115.994 109.807 109.815 115.8 104.01 122.228L27.2549 45.4736L26.4014 44.6201V107.619C26.4673 112.289 24.0133 116.633 19.9795 118.987C15.9456 121.342 10.9567 121.342 6.92285 118.987C2.88902 116.633 0.435016 112.289 0.500977 107.619V13.4619Z" stroke="#312d2a" stroke-width="1.5"/>
</svg>